<svg xmlns="http://www.w3.org/2000/svg" viewBox="0 0 100 100" fill="none" shape-rendering="auto" aria-hidden="true" width="512" height="512"><!-- Generated by DiceBear (https://www.dicebear.com) --><metadata xmlns:rdf="http://www.w3.org/1999/02/22-rdf-syntax-ns#" xmlns:xsi="http://www.w3.org/2001/XMLSchema-instance" xmlns:dc="http://purl.org/dc/elements/1.1/" xmlns:dcterms="http://purl.org/dc/terms/"><rdf:RDF><rdf:Description><dc:title>Critters</dc:title><dc:creator>DiceBear</dc:creator><dc:source xsi:type="dcterms:URI">https://www.dicebear.com</dc:source><dcterms:license xsi:type="dcterms:URI">https://creativecommons.org/publicdomain/zero/1.0/</dcterms:license><dc:rights>“Critters” (https://www.dicebear.com) by “DiceBear”, licensed under “CC0 1.0” (https://creativecommons.org/publicdomain/zero/1.0/)</dc:rights></rdf:Description></rdf:RDF></metadata><defs><g id="top-earsDroop-6244199e"><g opacity=".15" transform="translate(-23 -6.5)"><ellipse cx="36" cy="32" rx="5.5" ry="16" transform="rotate(-16 36 32)" fill="#1e293b"/><ellipse cx="64" cy="32" rx="5.5" ry="16" transform="rotate(16 64 32)" fill="#1e293b"/></g><ellipse cx="36" cy="32" rx="5.5" ry="16" transform="rotate(-16 -12.577 119.5)" fill="#5eead4"/><ellipse cx="64" cy="32" rx="5.5" ry="16" transform="rotate(16 86.577 -65.5)" fill="#5eead4"/></g><clipPath id="dbcrb-block"><path d="M12 106V36q0-8 8-8h60q8 0 8 8v70Z"/></clipPath><g id="body-block-6244199e"><g class="dbcr-t"><use transform="translate(26 5.5)" href="#top-earsDroop-6244199e"/></g><path d="M15 109.5v-70q0-8 8-8h60q8 0 8 8v70Z" fill="#1e293b" opacity=".15"/><path d="M12 106V36q0-8 8-8h60q8 0 8 8v70Z" fill="#c4b5fd"/><g clip-path="url(#dbcrb-block)"><path d="M12 106V36q0-8 8-8h60q8 0 8 8v70Zm3.5 4.5v-70q0-8 8-8h60q8 0 8 8v70Z" fill="#ffffff" opacity=".16" fill-rule="evenodd"/><path d="M12 106V36q0-8 8-8h60q8 0 8 8v70Zm-3.5-4.5v-70q0-8 8-8h60q8 0 8 8v70Z" fill="#1e293b" opacity=".1" fill-rule="evenodd"/></g></g><g id="eyes-trio-6244199e"><g class="dbcr-eb"><circle cx="9" cy="14" r="5.5" fill="#ffffff"/><circle cx="9" cy="14" r="2.2" fill="#1e293b"/></g><g class="dbcr-eb"><circle cx="23" cy="8" r="5.5" fill="#ffffff"/><circle cx="23" cy="8" r="2.2" fill="#1e293b"/></g><g class="dbcr-eb"><circle cx="37" cy="14" r="5.5" fill="#ffffff"/><circle cx="37" cy="14" r="2.2" fill="#1e293b"/></g></g><g id="mouth-laugh-6244199e"><path d="M4 3a10 10 0 0 0 20 0Z" fill="#1e293b"/><path d="M5.5 3h17v3h-17Z" fill="#ffffff"/></g><g id="animation-none-6244199e"></g><clipPath id="clip-6244199e"><rect width="100" height="100" rx="0" ry="0"/></clipPath></defs><g clip-path="url(#clip-6244199e)"><rect width="100" height="100" fill="#047857"/><g class="dbcr-c"><use href="#body-block-6244199e"/><use transform="translate(27 36)" href="#eyes-trio-6244199e"/><use transform="translate(36 60)" href="#mouth-laugh-6244199e"/></g><use href="#animation-none-6244199e"/></g></svg>